<?xml version="1.0" encoding="UTF-8" standalone="no"?>
<svg
   xmlns:dc="http://purl.org/dc/elements/1.1/"
   xmlns:cc="http://creativecommons.org/ns#"
   xmlns:rdf="http://www.w3.org/1999/02/22-rdf-syntax-ns#"
   xmlns:svg="http://www.w3.org/2000/svg"
   xmlns="http://www.w3.org/2000/svg"
   xmlns:sodipodi="http://sodipodi.sourceforge.net/DTD/sodipodi-0.dtd"
   xmlns:inkscape="http://www.inkscape.org/namespaces/inkscape"
   version="1.0"
   width="245.000000pt"
   height="206.000000pt"
   viewBox="0 0 245.000000 206.000000"
   preserveAspectRatio="xMidYMid meet"
   id="svg72"
   sodipodi:docname="house.svg"
   inkscape:version="0.92.4 5da689c313, 2019-01-14">
  <metadata
     id="metadata78">
    <rdf:RDF>
      <cc:Work
         rdf:about="">
        <dc:format>image/svg+xml</dc:format>
        <dc:type
           rdf:resource="http://purl.org/dc/dcmitype/StillImage" />
      </cc:Work>
    </rdf:RDF>
  </metadata>
  <defs
     id="defs76" />
  <sodipodi:namedview
     pagecolor="#ffffff"
     bordercolor="#666666"
     borderopacity="1"
     objecttolerance="10"
     gridtolerance="10"
     guidetolerance="10"
     inkscape:pageopacity="0"
     inkscape:pageshadow="2"
     inkscape:window-width="640"
     inkscape:window-height="480"
     id="namedview74"
     showgrid="false"
     inkscape:zoom="0.88607403"
     inkscape:cx="143.58329"
     inkscape:cy="137.33333"
     inkscape:window-x="0"
     inkscape:window-y="0"
     inkscape:window-maximized="0"
     inkscape:current-layer="svg72" />
  <g
     transform="translate(0.000000,206.000000) scale(0.100000,-0.100000)"
     fill="#000000"
     stroke="none"
     id="g70"
     style="fill:#ff00cc">
    <path
       d="M235 1718 c-135 -322 -175 -418 -175 -423 0 -3 529 -5 1176 -5 1035 0 1175 2 1170 15 -3 8 -56 129 -118 270 l-113 255 -335 0 -335 -1 27 -20 c14 -11 37 -28 50 -39 l23 -19 -30 -1 c-17 0 -36 5 -43 12 -9 9 -12 -37 -12 -210 l0 -222 -280 0 -280 0 0 221 c0 192 -2 220 -14 210 -8 -7 -27 -11 -42 -9 -27 3 -26 4 21 41 l48 37 -345 0 -345 0 -48 -112z"
       id="path2"
       style="fill:#ff00cc" />
    <path
       d="M1110 1710 c0 -27 3 -50 8 -50 4 0 7 20 6 45 0 24 3 42 8 39 4 -3 8 0 8 5 0 6 -7 11 -15 11 -11 0 -15 -12 -15 -50z"
       id="path4"
       style="fill:#ff00cc" />
    <path
       d="M1156 1743 c-6 -14 -5 -15 5 -6 7 7 10 15 7 18 -3 3 -9 -2 -12 -12z"
       id="path6"
       style="fill:#ff00cc" />
    <path
       d="M1193 1748 c2 -8 21 -13 45 -13 27 0 42 5 42 13 0 8 -16 12 -46 12 -32 0 -44 -4 -41 -12z"
       id="path8"
       style="fill:#ff00cc" />
    <path
       d="M1323 1745 c0 -12 3 -12 16 -2 12 9 13 9 7 0 -4 -7 -2 -13 3 -13 6 0 11 7 11 15 0 8 -8 15 -18 15 -10 0 -19 -7 -19 -15z"
       id="path10"
       style="fill:#ff00cc" />
    <path
       d="M1110 1632 c0 -5 7 -9 15 -9 8 0 15 4 15 9 0 4 -7 8 -15 8 -8 0 -15 -4 -15 -8z"
       id="path12"
       style="fill:#ff00cc" />
    <path
       d="M1110 1565 c0 -40 2 -45 23 -44 21 0 21 1 2 9 -11 5 -14 9 -7 9 6 1 12 9 12 19 0 14 -2 15 -10 2 -8 -12 -10 -9 -8 10 2 14 10 28 18 32 11 5 9 7 -7 7 -21 1 -23 -4 -23 -44z"
       id="path14"
       style="fill:#ff00cc" />
    <path
       d="M1110 1486 c0 -9 7 -12 20 -9 11 3 20 9 20 14 0 5 -9 9 -20 9 -11 0 -20 -6 -20 -14z"
       id="path16"
       style="fill:#ff00cc" />
    <path
       d="M1112 1430 c0 -19 2 -27 5 -17 2 9 2 25 0 35 -3 9 -5 1 -5 -18z"
       id="path18"
       style="fill:#ff00cc" />
    <path
       d="M1130 1440 c0 -5 5 -10 10 -10 6 0 10 5 10 10 0 6 -4 10 -10 10 -5 0 -10 -4 -10 -10z"
       id="path20"
       style="fill:#ff00cc" />
    <path
       d="M502 1163 l2 -68 3 62 c3 54 7 62 26 66 18 4 17 5 -5 6 l-28 1 2 -67z"
       id="path22"
       style="fill:#ff00cc" />
    <path
       d="M560 1220 c0 -5 18 -10 40 -10 22 0 40 5 40 10 0 6 -18 10 -40 10 -22 0 -40 -4 -40 -10z"
       id="path24"
       style="fill:#ff00cc" />
    <path
       d="M680 1218 c0 -4 7 -8 15 -8 8 0 15 4 15 8 0 5 -7 9 -15 9 -8 0 -15 -4 -15 -9z"
       id="path26"
       style="fill:#ff00cc" />
    <path
       d="M720 1220 c0 -5 20 -10 45 -10 25 0 45 5 45 10 0 6 -20 10 -45 10 -25 0 -45 -4 -45 -10z"
       id="path28"
       style="fill:#ff00cc" />
    <path
       d="M830 1220 c0 -5 7 -10 15 -10 8 0 15 5 15 10 0 6 -7 10 -15 10 -8 0 -15 -4 -15 -10z"
       id="path30"
       style="fill:#ff00cc" />
    <path
       d="M870 1220 c0 -11 21 -11 65 0 27 7 25 8 -17 9 -27 0 -48 -3 -48 -9z"
       id="path32"
       style="fill:#ff00cc" />
    <path
       d="M1510 1208 c0 -12 3 -17 8 -12 4 5 11 12 15 15 5 3 2 9 -7 12 -12 5 -16 0 -16 -15z"
       id="path34"
       style="fill:#ff00cc" />
    <path
       d="M1580 1222 c0 -4 16 -8 35 -8 19 0 35 4 35 8 0 4 -16 8 -35 8 -19 0 -35 -4 -35 -8z"
       id="path36"
       style="fill:#ff00cc" />
    <path
       d="M1670 1219 c0 -7 16 -8 48 -3 64 9 66 14 4 14 -30 0 -52 -4 -52 -11z"
       id="path38"
       style="fill:#ff00cc" />
    <path
       d="M1780 1220 c0 -5 7 -10 16 -10 8 0 12 5 9 10 -3 6 -10 10 -16 10 -5 0 -9 -4 -9 -10z"
       id="path40"
       style="fill:#ff00cc" />
    <path
       d="M1840 1220 c0 -5 9 -10 20 -10 11 0 20 5 20 10 0 6 -9 10 -20 10 -11 0 -20 -4 -20 -10z"
       id="path42"
       style="fill:#ff00cc" />
    <path
       d="M1920 1220 c0 -5 11 -10 25 -10 14 0 25 5 25 10 0 6 -11 10 -25 10 -14 0 -25 -4 -25 -10z"
       id="path44"
       style="fill:#ff00cc" />
    <path
       d="M1513 1140 c0 -25 2 -35 4 -22 2 12 2 32 0 45 -2 12 -4 2 -4 -23z"
       id="path46"
       style="fill:#ff00cc" />
    <path
       d="M224 955 l-159 -105 400 0 400 0 125 90 c69 50 131 97 139 105 13 12 -36 14 -366 15 l-381 0 -158 -105z"
       id="path48"
       style="fill:#ff00cc" />
    <path
       d="M1330 1056 c0 -2 63 -50 140 -105 l139 -101 395 2 396 3 -141 102 -141 102 -394 1 c-217 0 -394 -1 -394 -4z"
       id="path50"
       style="fill:#ff00cc" />
    <path
       d="M390 575 l0 -215 93 2 92 2 -85 5 -85 6 -3 63 c-2 46 0 62 10 62 9 0 9 3 -2 10 -13 9 -13 12 2 20 9 6 15 18 14 28 -3 14 8 18 68 23 l71 5 -71 2 -70 2 2 88 2 87 71 0 c50 0 71 4 71 13 0 9 -25 12 -90 12 l-90 0 0 -215z"
       id="path52"
       style="fill:#ff00cc" />
    <path
       d="M1880 575 l0 -215 95 0 95 0 0 215 0 215 -95 0 -95 0 0 -215z m180 105 l0 -90 -70 0 -70 0 0 90 0 90 70 0 70 0 0 -90z m0 -205 l0 -105 -80 0 -80 0 0 29 c0 17 5 33 10 36 6 3 10 12 10 18 0 7 -4 6 -10 -3 -8 -12 -10 -10 -10 8 0 13 4 20 10 17 6 -3 10 0 10 9 0 8 -6 17 -12 20 -10 5 -10 7 0 12 6 3 12 19 12 35 l0 29 70 0 70 0 0 -105z"
       id="path54"
       style="fill:#ff00cc" />
    <path
       d="M1911 404 c0 -11 3 -14 6 -6 3 7 2 16 -1 19 -3 4 -6 -2 -5 -13z"
       id="path56"
       style="fill:#ff00cc" />
    <path
       d="M1260 438 l0 -258 105 0 105 0 0 254 0 255 -105 3 -105 3 0 -257z m100 174 c0 -37 -1 -38 -30 -34 -27 4 -30 7 -27 38 2 30 5 34 30 34 25 0 27 -3 27 -38z m100 -62 l0 -100 -45 0 -44 0 0 100 0 100 45 0 44 0 0 -100z m-100 -46 l0 -55 -42 3 c-43 3 -43 3 -46 45 -3 35 0 42 12 37 11 -4 16 -1 16 10 0 11 9 16 30 16 30 0 30 0 30 -56z m0 -124 l0 -60 -30 0 c-17 0 -30 5 -30 13 0 8 -4 7 -10 -3 -5 -8 -10 -13 -11 -10 -10 58 -8 91 6 97 13 5 14 7 3 14 -8 6 2 9 30 9 l42 0 0 -60z m100 0 l0 -60 -45 0 -45 0 0 60 0 60 45 0 45 0 0 -60z m-160 -87 c0 12 8 17 30 17 30 0 30 -1 30 -55 l0 -55 -35 0 c-19 0 -35 5 -35 11 0 5 -4 7 -10 4 -6 -4 -10 14 -10 47 1 49 2 51 15 34 13 -17 15 -18 15 -3z m160 -38 l0 -55 -45 0 -45 0 0 55 0 55 45 0 45 0 0 -55z"
       id="path58"
       style="fill:#ff00cc" />
    <path
       d="M1403 563 c9 -2 25 -2 35 0 9 3 1 5 -18 5 -19 0 -27 -2 -17 -5z"
       id="path60"
       style="fill:#ff00cc" />
    <path
       d="M1291 364 c0 -11 3 -14 6 -6 3 7 2 16 -1 19 -3 4 -6 -2 -5 -13z"
       id="path62"
       style="fill:#ff00cc" />
    <path
       d="M1000 435 l0 -255 105 0 c102 0 105 1 104 23 0 12 -3 16 -6 10 -6 -16 -163 -18 -163 -2 0 5 -4 7 -10 4 -6 -4 -10 13 -10 45 l0 51 95 -3 c59 -2 95 1 95 7 0 6 -32 9 -81 8 -45 -2 -89 2 -98 7 -9 6 -11 10 -3 10 19 0 14 30 -5 30 -17 1 -17 1 0 14 9 7 17 18 17 25 0 6 -8 11 -17 12 -15 0 -14 2 3 9 11 4 55 8 97 9 75 1 76 0 80 -27 2 -15 5 42 6 126 l1 152 -105 0 -105 0 0 -255z m106 199 c-3 -9 -6 -27 -6 -40 0 -22 -4 -25 -27 -22 -24 3 -28 8 -29 41 -2 36 -2 37 33 37 28 0 34 -3 29 -16z m94 -25 l0 -40 -42 3 c-36 2 -43 6 -42 23 3 55 3 55 44 55 l40 0 0 -41z m-100 -86 c0 -44 11 -38 12 6 1 30 3 31 45 31 l43 0 0 -55 0 -55 -90 0 -90 0 0 40 c0 49 15 69 53 70 25 0 27 -3 27 -37z"
       id="path64"
       style="fill:#ff00cc" />
    <path
       d="M412 440 c0 -14 2 -19 5 -12 2 6 2 18 0 25 -3 6 -5 1 -5 -13z"
       id="path66"
       style="fill:#ff00cc" />
    <path
       d="M1102 385 c0 -16 2 -22 5 -12 2 9 2 23 0 30 -3 6 -5 -1 -5 -18z"
       id="path68"
       style="fill:#ff00cc" />
  </g>
</svg>
