<?xml version="1.0" encoding="UTF-8" standalone="no"?>
<svg
   xmlns:dc="http://purl.org/dc/elements/1.1/"
   xmlns:cc="http://creativecommons.org/ns#"
   xmlns:rdf="http://www.w3.org/1999/02/22-rdf-syntax-ns#"
   xmlns:svg="http://www.w3.org/2000/svg"
   xmlns="http://www.w3.org/2000/svg"
   xmlns:sodipodi="http://sodipodi.sourceforge.net/DTD/sodipodi-0.dtd"
   xmlns:inkscape="http://www.inkscape.org/namespaces/inkscape"
   id="Layer_1"
   version="1.1"
   viewBox="0 0 128 88"
   xml:space="preserve"
   sodipodi:docname="iconfinder_house-05_2140006.svg"
   inkscape:version="0.92.4 5da689c313, 2019-01-14"><metadata
     id="metadata205"><rdf:RDF><cc:Work
         rdf:about=""><dc:format>image/svg+xml</dc:format><dc:type
           rdf:resource="http://purl.org/dc/dcmitype/StillImage" /></cc:Work></rdf:RDF></metadata><defs
     id="defs203" /><sodipodi:namedview
     pagecolor="#ffffff"
     bordercolor="#666666"
     borderopacity="1"
     objecttolerance="10"
     gridtolerance="10"
     guidetolerance="10"
     inkscape:pageopacity="0"
     inkscape:pageshadow="2"
     inkscape:window-width="1280"
     inkscape:window-height="777"
     id="namedview201"
     showgrid="false"
     inkscape:zoom="5.8769531"
     inkscape:cx="57.672316"
     inkscape:cy="44"
     inkscape:window-x="0"
     inkscape:window-y="0"
     inkscape:window-maximized="1"
     inkscape:current-layer="g198" /><g
     id="g198"><g
       id="g60"><polygon
         fill="#E5E5E5"
         points="0,50 16,26 32,66 32,88 0,72   "
         id="polygon2"
         style="fill:#ff0066" /><polygon
         fill="#FFFFFF"
         points="0,72 2,73 2,47 0,50   "
         id="polygon4" /><polygon
         fill="#FFFFFF"
         points="30,87 32,88 32,66 30,61   "
         id="polygon6" /><polygon
         opacity="0.3"
         points="30,87 2,73 2,72 30,86   "
         id="polygon8" /><g
         id="g24"><polygon
           fill="#FFFFFF"
           points="21,58.5 11,53.5 11,41.5 21,46.5    "
           id="polygon10" /><polygon
           fill="#656565"
           points="12,53 20,57 20,47 12,43    "
           id="polygon12" /><polygon
           opacity="0.15"
           points="20,55 20,47 12,43    "
           id="polygon14" /><polygon
           fill="#FFFFFF"
           points="12,46 20,50 20,51 12,47    "
           id="polygon16" /><polygon
           opacity="0.15"
           points="20,48 12,44 12,43 20,47    "
           id="polygon18" /><polygon
           fill="#FFFFFF"
           points="14,43 15,43.5 15,54.5 14,54    "
           id="polygon20" /><polygon
           fill="#FFFFFF"
           points="17,44.5 18,45 18,56 17,55.5    "
           id="polygon22" /></g><g
         id="g40"><polygon
           fill="#FFFFFF"
           points="15,73.5 5,68.5 5,56.5 15,61.5    "
           id="polygon26" /><polygon
           fill="#656565"
           points="6,68 14,72 14,62 6,58    "
           id="polygon28" /><polygon
           opacity="0.15"
           points="14,70 14,62 6,58    "
           id="polygon30" /><polygon
           fill="#FFFFFF"
           points="6,61 14,65 14,66 6,62    "
           id="polygon32" /><polygon
           opacity="0.15"
           points="14,63 6,59 6,58 14,62    "
           id="polygon34" /><polygon
           fill="#FFFFFF"
           points="8,58 9,58.5 9,69.5 8,69    "
           id="polygon36" /><polygon
           fill="#FFFFFF"
           points="11,59.5 12,60 12,71 11,70.5    "
           id="polygon38" /></g><g
         id="g56"><polygon
           fill="#FFFFFF"
           points="27,79.5 17,74.5 17,62.5 27,67.5    "
           id="polygon42" /><polygon
           fill="#656565"
           points="18,74 26,78 26,68 18,64    "
           id="polygon44" /><polygon
           opacity="0.15"
           points="26,76 26,68 18,64    "
           id="polygon46" /><polygon
           fill="#FFFFFF"
           points="18,67 26,71 26,72 18,68    "
           id="polygon48" /><polygon
           opacity="0.15"
           points="26,69 18,65 18,64 26,68    "
           id="polygon50" /><polygon
           fill="#FFFFFF"
           points="20,64 21,64.5 21,75.5 20,75    "
           id="polygon52" /><polygon
           fill="#FFFFFF"
           points="23,65.5 24,66 24,77 23,76.5    "
           id="polygon54" /></g></g><g
       id="g104"><polygon
         points="32,66 64,50 64,72 32,88   "
         id="polygon62"
         fill="#E5E5E5" /><polygon
         points="32,88 34,87 34,65 32,66   "
         id="polygon64"
         fill="#FFFFFF" /><polygon
         points="62,73 64,72 64,50 62,51   "
         id="polygon66"
         fill="#FFFFFF" /><polygon
         points="62,73 34,87 34,86 62,72   "
         id="polygon68"
         opacity="0.3" /><g
         id="g82"><polygon
           points="46,75 39,78.5 39,66.5 46,63    "
           id="polygon70"
           fill="#FFFFFF" /><polygon
           points="40,77 45,74.5 45,64.5 40,67    "
           id="polygon72"
           fill="#656565" /><polygon
           points="45,72.5 45,64.5 40,67    "
           id="polygon74"
           opacity="0.15" /><polygon
           points="40,70 45,67.5 45,68.5 40,71    "
           id="polygon76"
           fill="#FFFFFF" /><polygon
           points="45,65.5 40,68 40,67 45,64.5    "
           id="polygon78"
           opacity="0.15" /><polygon
           points="42,65 43,64.5 43,75.5 42,76    "
           id="polygon80"
           fill="#FFFFFF" /></g><polygon
         points="59,56.5 50,61 50,78 59,73.5   "
         id="polygon84"
         fill="#FFFFFF" /><polygon
         points="58,74 51,77.5 51,61.5 58,58   "
         id="polygon86"
         fill="#762C07" /><polygon
         points="52,76 52,61 51,61.5 51,77.5 58,74 58,73   "
         id="polygon88"
         opacity="0.3" /><polygon
         points="54,64 52,65 52,64 54,63   "
         id="polygon90"
         opacity="0.3" /><polygon
         points="57,62.5 55,63.5 55,62.5 57,61.5   "
         id="polygon92"
         opacity="0.3" /><polygon
         points="54,68 52,69 52,68 54,67   "
         id="polygon94"
         opacity="0.3" /><polygon
         points="57,66.5 55,67.5 55,66.5 57,65.5   "
         id="polygon96"
         opacity="0.3" /><polygon
         points="54,72 52,73 52,72 54,71   "
         id="polygon98"
         opacity="0.3" /><polygon
         points="57,70.5 55,71.5 55,70.5 57,69.5   "
         id="polygon100"
         opacity="0.3" /><polygon
         points="32,66 64,50 64,72 32,88   "
         id="polygon102"
         opacity="0.29" /></g><g
       id="g144"><polygon
         fill="#E5E5E5"
         points="64,50 96,66 96,88 64,72   "
         id="polygon106" /><polygon
         fill="#FFFFFF"
         points="64,72 66,73 66,51 64,50   "
         id="polygon108" /><polygon
         fill="#FFFFFF"
         points="94,87 96,88 96,66 94,65   "
         id="polygon110" /><polygon
         opacity="0.3"
         points="94,87 66,73 66,72 94,86   "
         id="polygon112" /><g
         id="g126"><polygon
           fill="#FFFFFF"
           points="78,73 71,69.5 71,57.5 78,61    "
           id="polygon114" /><polygon
           fill="#656565"
           points="72,69 77,71.5 77,61.5 72,59    "
           id="polygon116" /><polygon
           opacity="0.15"
           points="77,69.5 77,61.5 72,59    "
           id="polygon118" /><polygon
           fill="#FFFFFF"
           points="72,62 77,64.5 77,65.5 72,63    "
           id="polygon120" /><polygon
           opacity="0.15"
           points="77,62.5 72,60 72,59 77,61.5    "
           id="polygon122" /><polygon
           fill="#FFFFFF"
           points="74,59 75,59.5 75,70.5 74,70    "
           id="polygon124" /></g><g
         id="g140"><polygon
           fill="#FFFFFF"
           points="89,78.5 82,75 82,63 89,66.5    "
           id="polygon128" /><polygon
           fill="#656565"
           points="83,74.5 88,77 88,67 83,64.5    "
           id="polygon130" /><polygon
           opacity="0.15"
           points="88,75 88,67 83,64.5    "
           id="polygon132" /><polygon
           fill="#FFFFFF"
           points="83,67.5 88,70 88,71 83,68.5    "
           id="polygon134" /><polygon
           opacity="0.15"
           points="88,68 83,65.5 83,64.5 88,67    "
           id="polygon136" /><polygon
           fill="#FFFFFF"
           points="85,64.5 86,65 86,76 85,75.5    "
           id="polygon138" /></g><polygon
         opacity="0.11"
         points="64,50 96,66 96,88 64,72   "
         id="polygon142" /></g><g
       id="g156"
       style="fill:#ff0066"><polygon
         fill="#E5E5E5"
         points="96,66 112,26 128,50 128,72 96,88   "
         id="polygon146"
         style="fill:#ff0066" /><polygon
         fill="#FFFFFF"
         points="96,88 98,87 98,61 96,66   "
         id="polygon148"
         style="fill:#ff0066" /><polygon
         fill="#FFFFFF"
         points="126,73 128,72 128,50 126,47   "
         id="polygon150"
         style="fill:#ff0066" /><polygon
         opacity="0.3"
         points="126,73 98,87 98,86 126,72   "
         id="polygon152"
         style="fill:#ff0066" /><polygon
         opacity="0.29"
         points="96,66 112,26 128,50 128,72 96,88   "
         id="polygon154"
         style="fill:#ff0066" /></g><g
       id="g166"
       style="fill:#11002b"><polygon
         fill="#2D3134"
         points="32,66 64,50 64,2 16,26   "
         id="polygon158"
         style="fill:#11002b" /><polygon
         opacity="0.39"
         points="32,66 64,50 64,2 16,26   "
         id="polygon160"
         style="fill:#11002b" /><polygon
         fill="#FFFFFF"
         opacity="0.2"
         points="64,4 16.7,27.8 16,26 64,2   "
         id="polygon162"
         style="fill:#11002b" /><polygon
         fill="#2D3134"
         points="32,66 16,26 0,50 1,50 16,27 31,66   "
         id="polygon164"
         style="fill:#11002b" /></g><g
       id="g178"
       style="fill:#11002b"><polygon
         fill="#2D3134"
         points="96,66 64,50 64,2 112,26   "
         id="polygon168"
         style="fill:#11002b" /><polygon
         opacity="0.06"
         points="96,66 64,50 64,2 112,26   "
         id="polygon170"
         style="fill:#11002b" /><polygon
         fill="#FFFFFF"
         opacity="0.2"
         points="64,4 110.9,27.6 112,26 64,2   "
         id="polygon172"
         style="fill:#11002b" /><polygon
         fill="#2D3134"
         points="96,66 112,26 128,50 127,50 112,27 97,66   "
         id="polygon174"
         style="fill:#11002b" /><polygon
         opacity="0.29"
         points="96,66 112,26 128,50 127,50 112,27 97,66   "
         id="polygon176"
         style="fill:#11002b" /></g><polygon
       fill="#999999"
       points="118,79 110,83 110,23 118,19  "
       id="polygon180" /><polygon
       opacity="0.29"
       points="118,79 110,83 110,23 118,19  "
       id="polygon182"
       style="fill:#ff0000" /><polygon
       fill="#999999"
       points="108,82 110,83 110,23 104,20 104,34 108,36  "
       id="polygon184" /><polygon
       opacity="0.11"
       points="108,82 110,83 110,23 104,20 104,34 108,36  "
       id="polygon186"
       style="fill:#ff0000" /><polygon
       fill="#999999"
       points="104,20 110,23 118,19 112,16  "
       id="polygon188" /><polygon
       fill="#999999"
       points="116,19 112,21 110,22 106,20 112,17  "
       id="polygon190" /><polygon
       opacity="0.11"
       points="116,19 112,21 112,17  "
       id="polygon192" /><polygon
       opacity="0.29"
       points="112,21 110,22 106,20 112,17  "
       id="polygon194" /><polygon
       opacity="0.11"
       points="32,66 16,26 0,50 1,50 16,27 31,66  "
       id="polygon196" /></g></svg>